HIERARCHY
ROOT Hips
{
  OFFSET -33.9132 29.2015 117.021
  CHANNELS 6 Xposition Yposition Zposition Zrotation Xrotation Yrotation
  JOINT LeftUpLeg
  {
    OFFSET 8.64259 1.95398 -2.38835
    CHANNELS 3 Zrotation Xrotation Yrotation
    JOINT LeftLeg
    {
      OFFSET 43.7702 0 0
      CHANNELS 3 Zrotation Xrotation Yrotation
      JOINT LeftFoot
      {
        OFFSET 40.6238 0 0
        CHANNELS 3 Zrotation Xrotation Yrotation
        JOINT LeftToeBase
        {
          OFFSET 12.7242 0 0
          CHANNELS 3 Zrotation Xrotation Yrotation
          End Site
          {
            OFFSET 0 0 0
          }
        }
      }
    }
  }
  JOINT RightUpLeg
  {
    OFFSET -8.2249 1.95398 -2.59336
    CHANNELS 3 Zrotation Xrotation Yrotation
    JOINT RightLeg
    {
      OFFSET 43.5653 0 0
      CHANNELS 3 Zrotation Xrotation Yrotation
      JOINT RightFoot
      {
        OFFSET 40.6238 0 0
        CHANNELS 3 Zrotation Xrotation Yrotation
        JOINT RightToeBase
        {
          OFFSET 12.7242 0 0
          CHANNELS 3 Zrotation Xrotation Yrotation
          End Site
          {
            OFFSET 0 0 0
          }
        }
      }
    }
  }
  JOINT Spine
  {
    OFFSET 0.165834 0.87714 6.61349
    CHANNELS 3 Zrotation Xrotation Yrotation
    JOINT Spine1
    {
      OFFSET 7.38963 1.71661e-005 0
      CHANNELS 3 Zrotation Xrotation Yrotation
      JOINT Spine2
      {
        OFFSET 11.9445 1.14441e-005 0
        CHANNELS 3 Zrotation Xrotation Yrotation
        JOINT Spine3
        {
          OFFSET 14.7254 4.19617e-005 0
          CHANNELS 3 Zrotation Xrotation Yrotation
          JOINT Spine4
          {
            OFFSET 10.9679 0 0
            CHANNELS 3 Zrotation Xrotation Yrotation
            JOINT RightShoulder
            {
              OFFSET 2.46616 -1.6653 3.69651
              CHANNELS 3 Zrotation Xrotation Yrotation
              JOINT RightArm
              {
                OFFSET 13.0012 0 0
                CHANNELS 3 Zrotation Xrotation Yrotation
                JOINT RightForeArm
                {
                  OFFSET 28.7848 1.62311e-005 0
                  CHANNELS 3 Zrotation Xrotation Yrotation
                  JOINT RightHand
                  {
                    OFFSET 26.5688 1.62095e-005 0
                    CHANNELS 3 Zrotation Xrotation Yrotation
                    End Site
                    {
                      OFFSET 0 0 0
                    }
                  }
                }
              }
            }
            JOINT LeftShoulder
            {
              OFFSET 2.38034 -1.29275 -3.7523
              CHANNELS 3 Zrotation Xrotation Yrotation
              JOINT LeftArm
              {
                OFFSET 16.3182 6.07031e-005 0
                CHANNELS 3 Zrotation Xrotation Yrotation
                JOINT LeftForeArm
                {
                  OFFSET 27.0901 0 0
                  CHANNELS 3 Zrotation Xrotation Yrotation
                  JOINT LeftHand
                  {
                    OFFSET 24.5451 1.51738e-005 0
                    CHANNELS 3 Zrotation Xrotation Yrotation
                    End Site
                    {
                      OFFSET 0 0 0
                    }
                  }
                }
              }
            }
            JOINT Neck
            {
              OFFSET 5.0226 -0.0266342 0
              CHANNELS 3 Zrotation Xrotation Yrotation
              JOINT Head
              {
                OFFSET 6.69364 2.86102e-005 0
                CHANNELS 3 Zrotation Xrotation Yrotation
                End Site
                {
                  OFFSET 0 0 0
                }
              }
            }
          }
        }
      }
    }
  }
}
MOTION
Frames:	6
Frame Time:	0.0416667
-20.7414 101.064 57.0636 102.049 26.9693 84.4497 -174.818 -6.31425 87.555 -11.4811 -1.58037 0.135454 70.9887 6.24958 -1.17769 11.0843 -14.9285 9.39987 173.524 -5.24692 88.639 -14.2269 -18.2498 -1.66128 65.7373 -3.93041 0.346757 24.7689 0.722576 3.94274 0.101807 7.9205 -90.0335 11.033 0.187187 -0.0846398 -0.637986 0.183308 -0.092804 -23.1733 0.203951 -0.0244772 -3.1606 0.203961 -0.0244725 89.6794 -26.8701 -108.681 39.061 -4.58401 -18.6611 1.72634 5.71098 -43.3328 -3.10476 0.379142 -23.6728 -89.3541 -48.7959 79.4453 -18.4814 -10.5889 -19.1303 -20.2458 -25.7573 -22.6866 -17.8576 3.32616 -30.6293 -7.80255 -6.32481 -6.96593 -4.77834 -5.83484 0.658922 
-20.7708 101.053 56.9927 101.863 27.513 84.474 -174.84 -5.93104 87.5935 -11.6647 -1.23201 0.135881 70.069 5.59382 -1.20016 13.455 -12.8266 8.54874 173.346 -5.01889 88.5345 -14.2559 -17.9841 -1.4704 65.8462 -4.05569 0.288478 24.9038 0.709933 3.78681 0.131297 7.90589 -90.0651 11.0622 0.231122 -0.151761 -0.608693 0.22423 -0.161796 -23.144 0.266053 -0.0752886 -3.13134 0.266065 -0.0752806 89.9372 -26.377 -108.356 39.076 -3.87447 -19.5756 -0.393621 3.57247 -40.6624 -1.1653 0.0833775 -27.0978 -89.7141 -49.3848 79.0257 -18.0812 -9.85578 -19.6395 -19.9603 -24.7515 -22.3113 -16.2253 2.93314 -30.3629 -7.25271 -2.21314 -4.62357 -5.38947 -1.89604 1.6691 
-20.8542 101.016 56.8945 101.886 28.4253 84.4251 -174.688 -5.58355 87.7549 -12.2342 -0.120899 -0.0107969 70.972 6.06646 -1.52577 12.2906 -14.3299 9.67184 173.057 -5.09919 88.4212 -14.0748 -17.6812 -1.1325 66.1244 -4.32302 0.300665 24.7029 1.11164 2.68122 0.148414 7.906 -90.0815 11.0621 0.257528 -0.186913 -0.608871 0.24907 -0.198077 -23.1442 0.301798 -0.100872 -3.13154 0.301814 -0.100871 89.6706 -26.5565 -108.835 38.73 -3.36869 -18.0036 0.652775 4.64974 -42.1678 -1.78105 0.193012 -26.5462 -90.0606 -49.7146 78.5755 -18.0963 -9.76568 -19.9978 -20.0506 -25.0166 -22.2037 -14.8632 2.49445 -29.2057 -6.45977 0.670641 -3.61417 -6.32564 0.897377 2.44405 
-20.9464 100.986 56.6719 101.488 29.2249 84.3568 -174.919 -5.09954 87.4257 -12.2285 0.270993 0.00352702 70.0811 5.62735 -1.23812 14.3966 -12.2194 8.55004 172.692 -4.56241 88.0508 -14.3674 -17.4183 -0.889666 66.3527 -4.44959 0.173066 24.7345 1.21354 2.27586 0.169359 7.87786 -90.065 11.1184 0.306892 -0.159059 -0.552535 0.2996 -0.172418 -23.088 0.34052 -0.059472 -3.07532 0.340519 -0.059471 89.6718 -26.7651 -108.741 38.4818 -2.87675 -17.397 0.666336 4.62733 -42.3873 -1.94307 0.225869 -26.6236 -90.0471 -49.5673 78.564 -19.0808 -9.88289 -20.3861 -19.6629 -24.5797 -21.915 -14.7806 2.50837 -29.4726 -5.68441 2.69068 -3.06235 -6.60107 2.85887 3.12037 
-20.92 100.96 56.4096 101.163 30.0559 84.4883 -174.922 -4.63319 87.3966 -12.5969 0.825336 -0.0508023 70.3844 5.81347 -1.22538 14.0439 -12.2343 8.22771 172.711 -4.38822 88.0066 -14.1716 -15.8659 -0.868037 65.9256 -4.12603 0.694879 26.0323 0.261888 3.67147 0.197233 7.86503 -90.1032 11.1442 0.344598 -0.238988 -0.526733 0.333763 -0.253929 -23.0622 0.400504 -0.124366 -3.04955 0.400499 -0.124373 89.75 -26.5678 -108.664 38.1236 -2.08429 -17.4147 0.235091 4.23149 -41.583 -0.833361 0.0165136 -28.3615 -90.1872 -50.1141 78.4733 -19.5548 -9.57986 -21.1417 -19.5305 -24.3216 -21.6798 -13.8201 2.21135 -28.6639 -4.85943 3.89879 -2.06197 -6.99869 3.96921 3.2672 
-20.9044 100.944 55.9722 101.396 30.794 84.1069 -175.037 -5.02987 87.1114 -12.2857 1.5123 -0.120175 70.2956 5.95848 -1.10749 13.8637 -12.0911 7.83304 172.413 -4.62632 87.5805 -14.3453 -15.4301 -0.864546 66.233 -4.26125 0.604667 26.006 0.275165 3.66274 0.212505 7.90577 -90.0959 11.0627 0.378248 -0.227269 -0.608213 0.367906 -0.243709 -23.1438 0.429109 -0.103073 -3.13112 0.429074 -0.103082 89.5313 -26.5573 -109.124 38.0472 -2.10358 -16.5605 1.83474 5.94458 -42.8467 -3.27081 0.470418 -26.5456 -90.0401 -50.017 78.6718 -20.145 -9.53894 -22.0486 -18.9583 -23.6864 -20.8329 -16.5247 3.02625 -30.5946 -4.45505 4.59345 -1.4139 -6.80886 4.61633 2.98703 
